<svg width="1692" height="386" viewBox="0 0 1692 386" fill="none" xmlns="http://www.w3.org/2000/svg">
<path fill-rule="evenodd" clip-rule="evenodd" d="M606.444 255.191C594.543 283.562 588.662 317.887 562.225 333.623C534.532 350.108 498.659 347.509 467.99 337.606C438.152 327.971 415.076 305.348 396.479 280.103C378.506 255.704 363.226 227.594 364.649 197.323C366.012 168.325 380.188 141.118 396.589 117.165C412.631 93.7393 433.442 72.2598 458.898 59.6857C485.824 46.3851 517.868 42.2668 546.417 51.5911C574.308 60.7009 595.386 83.7633 610.186 109.099C623.535 131.951 625.155 158.766 624.477 185.223C623.845 209.904 615.994 232.424 606.444 255.191Z" fill="url(#paint0_linear_26_4046)"/>
<path fill-rule="evenodd" clip-rule="evenodd" d="M471.101 164.445C490.697 218.303 491.144 281.321 447.203 318.117C401.293 356.562 334.229 354.212 284.733 320.509C238.361 288.934 224.834 230.185 237.958 175.639C252.438 115.456 287.922 53.2473 349.751 50.2786C411.081 47.3338 450.107 106.744 471.101 164.445Z" fill="url(#paint1_linear_26_4046)"/>
<path fill-rule="evenodd" clip-rule="evenodd" d="M263.474 95.9007C290.989 109.665 324.846 117.819 338.787 145.245C353.39 173.975 348.408 209.595 336.484 239.536C324.883 268.666 300.772 290.184 274.345 307.058C248.803 323.367 219.738 336.74 189.629 333.304C160.786 330.012 134.583 314.056 111.777 296.096C89.4713 278.529 69.4256 256.334 58.5749 230.097C47.0974 202.344 45.1226 170.097 56.3278 142.233C67.2751 115.011 91.6903 95.5152 117.955 82.436C141.646 70.6386 168.509 70.8085 194.863 73.2469C219.447 75.5217 241.394 84.855 263.474 95.9007Z" fill="url(#paint2_linear_26_4046)"/>
<path fill-rule="evenodd" clip-rule="evenodd" d="M1094.44 255.191C1082.54 283.562 1076.66 317.887 1050.23 333.623C1022.53 350.108 986.659 347.509 955.99 337.606C926.152 327.971 903.076 305.348 884.479 280.103C866.506 255.704 851.226 227.594 852.649 197.323C854.012 168.325 868.188 141.118 884.589 117.165C900.631 93.7393 921.442 72.2598 946.898 59.6857C973.824 46.3851 1005.87 42.2668 1034.42 51.5911C1062.31 60.7009 1083.39 83.7633 1098.19 109.099C1111.54 131.951 1113.15 158.766 1112.48 185.223C1111.84 209.904 1103.99 232.424 1094.44 255.191Z" fill="url(#paint3_linear_26_4046)"/>
<path fill-rule="evenodd" clip-rule="evenodd" d="M959.101 164.445C978.697 218.303 979.144 281.321 935.203 318.117C889.293 356.562 822.229 354.212 772.733 320.509C726.361 288.934 712.834 230.185 725.958 175.639C740.438 115.456 775.922 53.2473 837.751 50.2786C899.081 47.3338 938.107 106.744 959.101 164.445Z" fill="url(#paint4_linear_26_4046)"/>
<path fill-rule="evenodd" clip-rule="evenodd" d="M751.474 95.9007C778.989 109.665 812.846 117.819 826.787 145.245C841.39 173.975 836.408 209.595 824.484 239.536C812.883 268.666 788.772 290.184 762.345 307.058C736.803 323.367 707.738 336.74 677.629 333.304C648.786 330.012 622.583 314.056 599.777 296.096C577.471 278.529 557.426 256.334 546.575 230.097C535.097 202.344 533.123 170.097 544.328 142.233C555.275 115.011 579.69 95.5152 605.955 82.436C629.646 70.6386 656.509 70.8085 682.863 73.2469C707.447 75.5217 729.394 84.855 751.474 95.9007Z" fill="url(#paint5_linear_26_4046)"/>
<path fill-rule="evenodd" clip-rule="evenodd" d="M1604.44 255.191C1592.54 283.562 1586.66 317.887 1560.23 333.623C1532.53 350.108 1496.66 347.509 1465.99 337.606C1436.15 327.971 1413.08 305.348 1394.48 280.103C1376.51 255.704 1361.23 227.594 1362.65 197.323C1364.01 168.325 1378.19 141.118 1394.59 117.165C1410.63 93.7393 1431.44 72.2598 1456.9 59.6857C1483.82 46.3851 1515.87 42.2668 1544.42 51.5911C1572.31 60.7009 1593.39 83.7633 1608.19 109.099C1621.54 131.951 1623.15 158.766 1622.48 185.223C1621.84 209.904 1613.99 232.424 1604.44 255.191Z" fill="url(#paint6_linear_26_4046)"/>
<path fill-rule="evenodd" clip-rule="evenodd" d="M1469.1 164.445C1488.7 218.303 1489.14 281.321 1445.2 318.117C1399.29 356.562 1332.23 354.212 1282.73 320.509C1236.36 288.934 1222.83 230.185 1235.96 175.639C1250.44 115.456 1285.92 53.2473 1347.75 50.2786C1409.08 47.3338 1448.11 106.744 1469.1 164.445Z" fill="url(#paint7_linear_26_4046)"/>
<path fill-rule="evenodd" clip-rule="evenodd" d="M1261.47 95.9007C1288.99 109.665 1322.85 117.819 1336.79 145.245C1351.39 173.975 1346.41 209.595 1334.48 239.536C1322.88 268.666 1298.77 290.184 1272.35 307.058C1246.8 323.367 1217.74 336.74 1187.63 333.304C1158.79 330.012 1132.58 314.056 1109.78 296.096C1087.47 278.529 1067.43 256.334 1056.57 230.097C1045.1 202.344 1043.12 170.097 1054.33 142.233C1065.28 115.011 1089.69 95.5152 1115.96 82.436C1139.65 70.6386 1166.51 70.8085 1192.86 73.2469C1217.45 75.5217 1239.39 84.855 1261.47 95.9007Z" fill="url(#paint8_linear_26_4046)"/>
<defs>
<linearGradient id="paint0_linear_26_4046" x1="389.408" y1="422.372" x2="766.031" y2="13.9277" gradientUnits="userSpaceOnUse">
<stop stop-color="#E67220"/>
<stop offset="1" stop-color="#FCFCFC" stop-opacity="0"/>
</linearGradient>
<linearGradient id="paint1_linear_26_4046" x1="479.597" y1="351.343" x2="226.352" y2="15.7876" gradientUnits="userSpaceOnUse">
<stop stop-color="#3D6FAA"/>
<stop offset="1" stop-color="#C4C4C4" stop-opacity="0"/>
</linearGradient>
<linearGradient id="paint2_linear_26_4046" x1="-41.7397" y1="206.117" x2="430.406" y2="299.15" gradientUnits="userSpaceOnUse">
<stop stop-color="#E67220"/>
<stop offset="1" stop-color="#FCFCFC" stop-opacity="0"/>
</linearGradient>
<linearGradient id="paint3_linear_26_4046" x1="877.408" y1="422.372" x2="1254.03" y2="13.9277" gradientUnits="userSpaceOnUse">
<stop stop-color="#E67220"/>
<stop offset="1" stop-color="#FCFCFC" stop-opacity="0"/>
</linearGradient>
<linearGradient id="paint4_linear_26_4046" x1="967.597" y1="351.343" x2="714.352" y2="15.7876" gradientUnits="userSpaceOnUse">
<stop stop-color="#3D6FAA"/>
<stop offset="1" stop-color="#C4C4C4" stop-opacity="0"/>
</linearGradient>
<linearGradient id="paint5_linear_26_4046" x1="446.26" y1="206.117" x2="918.406" y2="299.15" gradientUnits="userSpaceOnUse">
<stop stop-color="#E67220"/>
<stop offset="1" stop-color="#FCFCFC" stop-opacity="0"/>
</linearGradient>
<linearGradient id="paint6_linear_26_4046" x1="1387.41" y1="422.372" x2="1764.03" y2="13.9277" gradientUnits="userSpaceOnUse">
<stop stop-color="#E67220"/>
<stop offset="1" stop-color="#FCFCFC" stop-opacity="0"/>
</linearGradient>
<linearGradient id="paint7_linear_26_4046" x1="1477.6" y1="351.343" x2="1224.35" y2="15.7876" gradientUnits="userSpaceOnUse">
<stop stop-color="#3D6FAA"/>
<stop offset="1" stop-color="#C4C4C4" stop-opacity="0"/>
</linearGradient>
<linearGradient id="paint8_linear_26_4046" x1="956.26" y1="206.117" x2="1428.41" y2="299.15" gradientUnits="userSpaceOnUse">
<stop stop-color="#E67220"/>
<stop offset="1" stop-color="#FCFCFC" stop-opacity="0"/>
</linearGradient>
</defs>
</svg>
