<svg width="289" height="264" viewBox="0 0 289 264" fill="none" xmlns="http://www.w3.org/2000/svg">
<path fill-rule="evenodd" clip-rule="evenodd" d="M140.199 11.8228C170.442 6.17582 202.352 -7.77316 230.026 5.66671C259.017 19.7456 276.558 51.1446 285.137 82.2102C293.484 112.434 287.263 144.145 276.391 173.555C265.883 201.979 250.794 230.192 224.721 245.638C199.745 260.434 169.224 263.541 140.199 263C111.812 262.471 82.43 256.887 57.9362 242.528C32.0272 227.341 10.9778 202.831 3.08038 173.856C-4.63532 145.547 3.05006 115.263 16.0848 88.9763C27.8421 65.2655 49.3554 49.1771 71.8322 35.2047C92.8002 22.1703 115.929 16.3544 140.199 11.8228Z" fill="url(#paint0_linear_12_3269)"/>
<defs>
<linearGradient id="paint0_linear_12_3269" x1="-36.5" y1="284" x2="396" y2="73" gradientUnits="userSpaceOnUse">
<stop stop-color="#E67220"/>
<stop offset="1" stop-color="#FCFCFC" stop-opacity="0"/>
</linearGradient>
</defs>
</svg>
